<svg xmlns="http://www.w3.org/2000/svg" version="1.1" xmlns:xlink="http://www.w3.org/1999/xlink" xmlns:svgjs="http://svgjs.dev/svgjs" width="1500" height="1500" viewBox="0 0 1500 1500"><rect width="1500" height="1500" fill="#636365"></rect><g transform="matrix(0.6666666666666666,0,0,0.6666666666666666,249.39393939393938,580.6561189234583)"><svg viewBox="0 0 396 134" data-background-color="#636365" preserveAspectRatio="xMidYMid meet" height="507" width="1500" xmlns="http://www.w3.org/2000/svg" xmlns:xlink="http://www.w3.org/1999/xlink"><g id="tight-bounds" transform="matrix(1,0,0,1,0.2400000000000091,0.13633155105500805)"><svg viewBox="0 0 395.52 133.72733689789" height="133.72733689789" width="395.52"><g><svg viewBox="0 0 634.384118950525 214.48851839999998" height="133.72733689789" width="395.52"><g transform="matrix(1,0,0,1,238.86411895052507,55.61766320861354)"><svg viewBox="0 0 395.52 103.25319198277289" height="103.25319198277289" width="395.52"><g id="textblocktransform"><svg viewBox="0 0 395.52 103.25319198277289" height="103.25319198277289" width="395.52" id="textblock"><g><svg viewBox="0 0 395.52 103.25319198277289" height="103.25319198277289" width="395.52"><g transform="matrix(1,0,0,1,0,0)"><svg width="395.52" viewBox="0 -37.99 147.38 38.480000000000004" height="103.25319198277289" data-palette-color="#d2d6dc"><path d="M31.64 0L27.34 0 22.9-11.35 8.59-11.35 4.2 0 0 0 14.11-35.84 17.6-35.84 31.64 0ZM10.06-15.09L21.61-15.09 17.46-26.15Q16.65-28.25 15.8-31.3L15.8-31.3Q15.26-28.96 14.26-26.15L14.26-26.15 10.06-15.09ZM58.3 0L54.25 0 54.25-17.31Q54.25-20.58 52.76-22.19 51.27-23.8 48.09-23.8L48.09-23.8Q43.89-23.8 41.94-21.53 39.99-19.26 39.99-14.04L39.99-14.04 39.99 0 35.94 0 35.94-26.76 39.23-26.76 39.89-23.1 40.09-23.1Q41.33-25.07 43.58-26.16 45.82-27.25 48.58-27.25L48.58-27.25Q53.42-27.25 55.86-24.91 58.3-22.58 58.3-17.46L58.3-17.46 58.3 0ZM104.78 0L100.73 0 100.73-17.41Q100.73-20.61 99.36-22.2 97.99-23.8 95.11-23.8L95.11-23.8Q91.33-23.8 89.52-21.63 87.71-19.46 87.71-14.94L87.71-14.94 87.71 0 83.66 0 83.66-17.41Q83.66-20.61 82.29-22.2 80.93-23.8 78.02-23.8L78.02-23.8Q74.21-23.8 72.44-21.52 70.67-19.24 70.67-14.04L70.67-14.04 70.67 0 66.62 0 66.62-26.76 69.92-26.76 70.58-23.1 70.77-23.1Q71.92-25.05 74.01-26.15 76.09-27.25 78.68-27.25L78.68-27.25Q84.96-27.25 86.88-22.71L86.88-22.71 87.08-22.71Q88.28-24.8 90.55-26.03 92.82-27.25 95.72-27.25L95.72-27.25Q100.26-27.25 102.52-24.91 104.78-22.58 104.78-17.46L104.78-17.46 104.78 0ZM136.22-13.4L136.22-13.4Q136.22-6.86 132.93-3.19 129.63 0.49 123.82 0.49L123.82 0.49Q120.23 0.49 117.45-1.2 114.67-2.88 113.15-6.03 111.64-9.18 111.64-13.4L111.64-13.4Q111.64-19.95 114.91-23.6 118.18-27.25 123.99-27.25L123.99-27.25Q129.61-27.25 132.91-23.51 136.22-19.78 136.22-13.4ZM115.84-13.4L115.84-13.4Q115.84-8.28 117.89-5.59 119.94-2.91 123.92-2.91L123.92-2.91Q127.9-2.91 129.96-5.58 132.02-8.25 132.02-13.4L132.02-13.4Q132.02-18.51 129.96-21.15 127.9-23.8 123.87-23.8L123.87-23.8Q119.89-23.8 117.86-21.19 115.84-18.58 115.84-13.4ZM147.38-37.99L147.38 0 143.32 0 143.32-37.99 147.38-37.99Z" opacity="1" transform="matrix(1,0,0,1,0,0)" fill="#d2d6dc" class="wordmark-text-0" data-fill-palette-color="primary" id="text-0"></path></svg></g></svg></g></svg></g></svg></g><g><svg viewBox="0 0 214.48851839999998 214.48851839999998" height="214.48851839999998" width="214.48851839999998"><g><svg></svg></g><g id="icon-0"><svg viewBox="0 0 214.48851839999998 214.48851839999998" height="214.48851839999998" width="214.48851839999998"><g><rect width="195.02567136" height="195.02567136" x="9.731423519999993" y="9.731423519999993" fill="#97978d" data-fill-palette-color="accent"></rect><rect width="195.02567136" height="195.02567136" x="19.462847039999993" y="-5.329070518200751e-15" fill="#97978d" opacity="0.5" data-fill-palette-color="accent"></rect></g><g transform="matrix(1,0,0,1,27.80406719999999,43.35311656618282)"><svg viewBox="0 0 158.880384 127.78228526763434" height="127.78228526763434" width="158.880384"><g><svg xmlns="http://www.w3.org/2000/svg" xmlns:xlink="http://www.w3.org/1999/xlink" version="1.1" x="0" y="0" viewBox="0 9.786 100.00034525290006 80.42699999999999" enable-background="new 0 0 100 100" xml:space="preserve" width="158.880384" height="127.78228526763434" class="icon-cg-0" data-fill-palette-color="background" id="cg-0"><path d="M49.942 52.994c13.552-0.488 27.103-0.977 40.653-1.465-2.527-4.177-3.159-7.831-7.989-8.461-7.229-0.94-14.458-1.883-21.688-2.826-14.023-1.827-28.05-3.654-42.075-5.48C20.101 36.792 39.724 53.361 49.942 52.994z" fill="#636365" data-fill-palette-color="background"></path><path d="M0 9.786c4.391 7.257 26.615 23.072 32.953 23.886 17.33 2.231 34.657 4.46 51.986 6.688-3.393-5.607-4.18-9.35-10.312-10.959-8.904-2.341-17.812-4.683-26.717-7.023C31.94 18.182 15.97 13.984 0 9.786z" fill="#636365" data-fill-palette-color="background"></path><path d="M63.108 66.207c10.413-2.219 20.826-4.439 31.241-6.66-2.028-3.346-2.034-5.359-5.827-5.189-6.158 0.273-12.314 0.549-18.471 0.822-11.343 0.506-22.686 1.014-34.028 1.518C37.298 58.064 54.94 67.947 63.108 66.207z" fill="#636365" data-fill-palette-color="background"></path><path d="M87.682 90.213c5.725-3.719 7.262-7.721 10.519-13.807 3.651-6.824 1.257-7.844-2.821-14.596-0.417-0.688-5.842 0.232-6.453 0.904-0.745 0.818-0.248 5.455-0.294 6.496C88.315 76.211 87.998 83.213 87.682 90.213z" fill="#636365" data-fill-palette-color="background"></path><path d="M86.35 63.447c-3.795 0.809-8.604 0.191-9.572 4.229-1.373 5.736-2.746 11.475-4.12 17.211C81.904 82.678 86.028 71.582 86.35 63.447z" fill="#636365" data-fill-palette-color="background"></path><path d="M74.666 66.121c-9.148 1.953-8.956 4.611-12.879 13.18C68.007 78.711 73.811 71.941 74.666 66.121z" fill="#636365" data-fill-palette-color="background"></path></svg></g></svg></g></svg></g></svg></g></svg></g><defs></defs></svg><rect width="395.52" height="133.72733689789" fill="none" stroke="none" visibility="hidden"></rect></g></svg></g></svg>